<svg id="Layer_1" data-name="Layer 1" xmlns="http://www.w3.org/2000/svg" viewBox="0 0 497.64 184.61"><defs><style>.cls-1,.cls-2{fill:none;stroke-miterlimit:10;stroke-width:3.18px;}.cls-1{stroke:#c7487f;}.cls-2{stroke:#fff;}</style></defs><title>name</title><line class="cls-1" x1="2.34" y1="67.03" x2="2.34" y2="17.75"/><line class="cls-1" x1="62.39" y1="20.83" x2="62.39" y2="26.22"/><line class="cls-1" x1="18.51" y1="1.59" x2="43.14" y2="1.59"/><path class="cls-1" d="M29.28,27.08A16.16,16.16,0,0,1,45.45,10.92" transform="translate(-26.94 -9.33)"/><path class="cls-1" d="M70.09,10.92A19.23,19.23,0,0,1,89.33,30.16" transform="translate(-26.94 -9.33)"/><path class="cls-1" d="M65.47,76.35a18.09,18.09,0,0,1-18.09,18.1" transform="translate(-26.94 -9.33)"/><path class="cls-1" d="M29.28,76.35" transform="translate(-26.94 -9.33)"/><path class="cls-1" d="M47.38,94.45a18.1,18.1,0,0,1-18.1-18.1" transform="translate(-26.94 -9.33)"/><path class="cls-1" d="M89.33,34.78A18.09,18.09,0,0,1,71.24,52.87" transform="translate(-26.94 -9.33)"/><path class="cls-1" d="M70.86,39.4A18.47,18.47,0,0,1,89.33,57.88" transform="translate(-26.94 -9.33)"/><path class="cls-1" d="M89.35,76.35a18.09,18.09,0,0,1-18.09,18.1" transform="translate(-26.94 -9.33)"/><path class="cls-1" d="M59.32,89.94a18,18,0,0,1-6.15-13.59" transform="translate(-26.94 -9.33)"/><path class="cls-1" d="M71.26,94.45a18,18,0,0,1-11.94-4.51" transform="translate(-26.94 -9.33)"/><path class="cls-1" d="M60.24,39.41a6.73,6.73,0,0,0,0,13.46" transform="translate(-26.94 -9.33)"/><line class="cls-1" x1="33.3" y1="30.08" x2="43.91" y2="30.08"/><line class="cls-1" x1="33.3" y1="43.55" x2="44.3" y2="43.55"/><line class="cls-1" x1="62.39" y1="48.55" x2="62.39" y2="67.03"/><path class="cls-1" d="M53.18,70.72a6.14,6.14,0,1,1,12.28,0" transform="translate(-26.94 -9.33)"/><line class="cls-1" x1="26.23" y1="61.39" x2="26.23" y2="67.03"/><line class="cls-1" x1="38.52" y1="61.39" x2="38.52" y2="67.03"/><line class="cls-1" x1="42.34" y1="99.49" x2="26.55" y2="99.49"/><line class="cls-1" x1="60.07" y1="157" x2="60.07" y2="145.92"/><line class="cls-1" x1="19.7" y1="182.93" x2="34.13" y2="182.93"/><line class="cls-1" x1="1.59" y1="124.76" x2="1.59" y2="136.42"/><path class="cls-1" d="M28.53,134.09A25.27,25.27,0,0,1,53.8,108.82" transform="translate(-26.94 -9.33)"/><path class="cls-1" d="M53.49,167.08a25.28,25.28,0,0,1-25-21.33" transform="translate(-26.94 -9.33)"/><path class="cls-1" d="M46.64,192.35a18.27,18.27,0,0,1,0-36.53,18,18,0,0,1,11.11,3.84" transform="translate(-26.94 -9.33)"/><path class="cls-1" d="M57.75,159.66a4.94,4.94,0,0,1-4.26,7.42" transform="translate(-26.94 -9.33)"/><path class="cls-1" d="M87,126.54a17.73,17.73,0,0,1-17.72,17.73" transform="translate(-26.94 -9.33)"/><path class="cls-1" d="M69.29,108.82A17.72,17.72,0,0,1,87,126.54" transform="translate(-26.94 -9.33)"/><path class="cls-1" d="M87,166.33a25.93,25.93,0,0,1-25.93,25.93" transform="translate(-26.94 -9.33)"/><path class="cls-1" d="M63.49,144.27a6.17,6.17,0,0,1,0-12.34" transform="translate(-26.94 -9.33)"/><line class="cls-1" x1="36.55" y1="134.94" x2="42.34" y2="134.94"/><path class="cls-1" d="M87,155.25a23.32,23.32,0,0,0-23.32-23.32" transform="translate(-26.94 -9.33)"/><circle class="cls-2" cx="97.24" cy="152.51" r="29.91"/><circle class="cls-2" cx="97.24" cy="152.51" r="6.42"/><path class="cls-2" d="M124.18,131.93a11.75,11.75,0,0,0,0,23.49" transform="translate(-26.94 -9.33)"/><circle class="cls-2" cx="98.83" cy="55.43" r="29.91"/><circle class="cls-2" cx="98.83" cy="55.43" r="6.42"/><path class="cls-2" d="M125.77,34.85a11.75,11.75,0,1,0,0,23.49" transform="translate(-26.94 -9.33)"/><circle class="cls-2" cx="374.71" cy="55.43" r="29.91"/><circle class="cls-2" cx="374.71" cy="55.43" r="6.42"/><path class="cls-2" d="M401.65,34.85a11.75,11.75,0,0,0,0,23.49" transform="translate(-26.94 -9.33)"/><line class="cls-2" x1="195.47" y1="13.24" x2="195.47" y2="73.47"/><path class="cls-2" d="M203.83,92.16A30.12,30.12,0,1,1,192.3,34.22" transform="translate(-26.94 -9.33)"/><path class="cls-2" d="M210,88.67a30.22,30.22,0,0,1-6.21,3.49" transform="translate(-26.94 -9.33)"/><path class="cls-2" d="M192.3,71.14a6.81,6.81,0,1,1,0-13.62" transform="translate(-26.94 -9.33)"/><line class="cls-2" x1="172.16" y1="30.72" x2="172.16" y2="13.24"/><path class="cls-2" d="M222.41,22.57a11.65,11.65,0,0,0-23.3,0" transform="translate(-26.94 -9.33)"/><path class="cls-2" d="M222.41,82.79a11.65,11.65,0,1,1-23.3,0" transform="translate(-26.94 -9.33)"/><line class="cls-2" x1="165.35" y1="24.89" x2="177.99" y2="24.89"/><path class="cls-2" d="M204.93,34.22" transform="translate(-26.94 -9.33)"/><path class="cls-2" d="M204.93,34.22A5.83,5.83,0,1,1,199.11,40" transform="translate(-26.94 -9.33)"/><path class="cls-2" d="M199.11,82.79A7,7,0,1,1,210,88.61" transform="translate(-26.94 -9.33)"/><line class="cls-2" x1="201.97" y1="35.98" x2="201.97" y2="74.12"/><line class="cls-2" x1="223.97" y1="74.12" x2="223.97" y2="56.5"/><path class="cls-2" d="M250.91,83.45a11,11,0,1,1-22,0" transform="translate(-26.94 -9.33)"/><path class="cls-2" d="M228.92,46.09a11,11,0,1,1,22,0,10.88,10.88,0,0,1-.06,1.14" transform="translate(-26.94 -9.33)"/><path class="cls-2" d="M250.91,65.82a6.32,6.32,0,0,1,6.33-6.32" transform="translate(-26.94 -9.33)"/><path class="cls-2" d="M240,47.22c0-.41-.07-.84-.07-1.26a11,11,0,0,1,11-11" transform="translate(-26.94 -9.33)"/><path class="cls-2" d="M256.92,35a12.27,12.27,0,0,1,0,24.54" transform="translate(-26.94 -9.33)"/><path class="cls-2" d="M239.91,47.23a5.5,5.5,0,0,0,11,0" transform="translate(-26.94 -9.33)"/><line class="cls-2" x1="223.97" y1="25.63" x2="229.97" y2="25.63"/><circle class="cls-2" cx="260.28" cy="13.12" r="11.53"/><path class="cls-2" d="M275.69,45.51a11.53,11.53,0,1,1,23.06,0" transform="translate(-26.94 -9.33)"/><path class="cls-2" d="M298.75,82.92a11.53,11.53,0,1,1-23.06,0" transform="translate(-26.94 -9.33)"/><line class="cls-2" x1="248.75" y1="36.18" x2="248.75" y2="73.59"/><line class="cls-2" x1="271.81" y1="36.18" x2="271.81" y2="73.59"/><path class="cls-2" d="M348.84,38.35a31.81,31.81,0,0,0-13.59-3.43,30,30,0,1,0,0,60" transform="translate(-26.94 -9.33)"/><circle class="cls-2" cx="308.31" cy="55.58" r="6.44"/><path class="cls-2" d="M335.25,94.89a11.78,11.78,0,1,0,0-23.55" transform="translate(-26.94 -9.33)"/><path class="cls-2" d="M321.9,118.45a11.78,11.78,0,0,1,0-23.56" transform="translate(-26.94 -9.33)"/><line class="cls-2" x1="294.96" y1="109.12" x2="316.86" y2="109.12"/><line class="cls-2" x1="294.96" y1="85.57" x2="308.31" y2="85.57"/><line class="cls-2" x1="338.3" y1="37.64" x2="338.3" y2="87.69"/><path class="cls-2" d="M343.81,118.45A21.44,21.44,0,0,0,365.24,97" transform="translate(-26.94 -9.33)"/><path class="cls-2" d="M341.14,47a12.05,12.05,0,0,1,24.1,0" transform="translate(-26.94 -9.33)"/><path class="cls-2" d="M352.48,47a5.69,5.69,0,1,1-11.34,0" transform="translate(-26.94 -9.33)"/><path class="cls-2" d="M348.84,38.35a5.68,5.68,0,0,1,3.64,5.3" transform="translate(-26.94 -9.33)"/><line class="cls-2" x1="325.53" y1="38.09" x2="325.53" y2="34.32"/><line class="cls-2" x1="175.93" y1="122.6" x2="155.2" y2="122.6"/><line class="cls-2" x1="196.66" y1="145.19" x2="196.66" y2="169.46"/><line class="cls-2" x1="132.61" y1="145.19" x2="132.61" y2="169.46"/><path class="cls-2" d="M159.55,154.52a22.6,22.6,0,0,1,22.59-22.59" transform="translate(-26.94 -9.33)"/><path class="cls-2" d="M201,131.93a22.6,22.6,0,0,1,22.59,22.59" transform="translate(-26.94 -9.33)"/><path class="cls-2" d="M185.4,178.79a12.94,12.94,0,1,1-25.85,0" transform="translate(-26.94 -9.33)"/><path class="cls-2" d="M210.13,173.71a18.56,18.56,0,0,1-37.11,0" transform="translate(-26.94 -9.33)"/><path class="cls-2" d="M223.6,178.79a13,13,0,1,1-25.91,0" transform="translate(-26.94 -9.33)"/><path class="cls-2" d="M173,160.74a6.23,6.23,0,0,1,12.45,0" transform="translate(-26.94 -9.33)"/><path class="cls-2" d="M197.69,161a6.22,6.22,0,0,1,12.44,0" transform="translate(-26.94 -9.33)"/><line class="cls-2" x1="146.08" y1="151.42" x2="146.08" y2="165.86"/><line class="cls-2" x1="158.52" y1="151.42" x2="158.45" y2="169.46"/><line class="cls-2" x1="170.74" y1="151.65" x2="170.74" y2="169.46"/><line class="cls-2" x1="183.19" y1="151.65" x2="183.19" y2="164.38"/><line class="cls-2" x1="245.29" y1="122.6" x2="224.56" y2="122.6"/><line class="cls-2" x1="266.02" y1="145.19" x2="266.02" y2="169.46"/><line class="cls-2" x1="201.97" y1="145.19" x2="201.97" y2="169.46"/><path class="cls-2" d="M228.92,154.52a22.59,22.59,0,0,1,22.59-22.59" transform="translate(-26.94 -9.33)"/><path class="cls-2" d="M270.37,131.93A22.59,22.59,0,0,1,293,154.52" transform="translate(-26.94 -9.33)"/><path class="cls-2" d="M254.76,178.79a12.93,12.93,0,1,1-25.84,0" transform="translate(-26.94 -9.33)"/><path class="cls-2" d="M279.49,173.71a18.56,18.56,0,0,1-37.11,0" transform="translate(-26.94 -9.33)"/><path class="cls-2" d="M293,178.79a13,13,0,1,1-25.91,0" transform="translate(-26.94 -9.33)"/><path class="cls-2" d="M242.38,160.74a6.23,6.23,0,0,1,12.45,0" transform="translate(-26.94 -9.33)"/><path class="cls-2" d="M267.05,161a6.22,6.22,0,0,1,12.44,0" transform="translate(-26.94 -9.33)"/><line class="cls-2" x1="215.44" y1="151.42" x2="215.44" y2="165.86"/><line class="cls-2" x1="227.88" y1="151.42" x2="227.82" y2="169.46"/><line class="cls-2" x1="240.11" y1="151.65" x2="240.11" y2="169.46"/><line class="cls-2" x1="252.55" y1="151.65" x2="252.55" y2="164.38"/><path class="cls-2" d="M359.08,162.1" transform="translate(-26.94 -9.33)"/><path class="cls-2" d="M359.08,162.1A30.16,30.16,0,1,0,337.52,191" transform="translate(-26.94 -9.33)"/><path class="cls-2" d="M335.39,162.1a6.57,6.57,0,0,0-.27-1.85,6.47,6.47,0,1,0-4.36,8.05" transform="translate(-26.94 -9.33)"/><path class="cls-2" d="M337.52,191a11.84,11.84,0,1,0-6.76-22.7" transform="translate(-26.94 -9.33)"/><line class="cls-2" x1="332.13" y1="152.77" x2="332.13" y2="171.08"/><line class="cls-2" x1="308.45" y1="152.77" x2="308.45" y2="171.08"/><path class="cls-2" d="M335.39,180.41a11.85,11.85,0,1,0,23.69,0" transform="translate(-26.94 -9.33)"/><path class="cls-2" d="M488.45,162.1" transform="translate(-26.94 -9.33)"/><path class="cls-2" d="M488.45,162.1A30.16,30.16,0,1,0,466.89,191" transform="translate(-26.94 -9.33)"/><path class="cls-2" d="M464.76,162.1a6.57,6.57,0,0,0-.27-1.85,6.47,6.47,0,1,0-4.36,8.05" transform="translate(-26.94 -9.33)"/><path class="cls-2" d="M466.89,191a11.84,11.84,0,1,0-6.76-22.7" transform="translate(-26.94 -9.33)"/><line class="cls-2" x1="461.5" y1="152.77" x2="461.5" y2="171.08"/><line class="cls-2" x1="437.82" y1="152.77" x2="437.82" y2="171.08"/><path class="cls-2" d="M464.76,180.41a11.85,11.85,0,1,0,23.69,0" transform="translate(-26.94 -9.33)"/><path class="cls-2" d="M422.16,171.48a30,30,0,1,0-18.9,18.92" transform="translate(-26.94 -9.33)"/><path class="cls-2" d="M399.63,164.48a6.44,6.44,0,1,0-3.88,3.58" transform="translate(-26.94 -9.33)"/><path class="cls-2" d="M403.26,190.4a11.78,11.78,0,1,0-7.51-22.34" transform="translate(-26.94 -9.33)"/><path class="cls-2" d="M422.16,171.48a11.84,11.84,0,0,1-22.54-7" transform="translate(-26.94 -9.33)"/><path class="cls-2" d="M497.73,121.45a12.64,12.64,0,0,1,25.27,0" transform="translate(-26.94 -9.33)"/><path class="cls-2" d="M523,179.62a12.64,12.64,0,1,1-25.27,0" transform="translate(-26.94 -9.33)"/><line class="cls-2" x1="470.79" y1="112.13" x2="470.79" y2="170.29"/><line class="cls-2" x1="496.06" y1="112.13" x2="496.06" y2="170.29"/></svg>